<svg width="157" height="40" viewBox="0 0 157 40" fill="none" xmlns="http://www.w3.org/2000/svg">
<g clip-path="url(#clip0_13045_30)">
<path d="M61.9371 20.9336C62.1695 20.9908 62.5536 21.1213 63.0942 21.3249C63.6348 21.5286 64.1873 21.8146 64.7563 22.1785C65.3254 22.5423 65.8209 22.9954 66.2453 23.5355C66.6698 24.0755 66.8808 24.7208 66.8808 25.4668C66.8808 26.1213 66.7694 26.7185 66.5488 27.2586C66.3283 27.7986 66.0035 28.2769 65.5814 28.6865C65.157 29.0984 64.6378 29.4142 64.0189 29.6384C63.4024 29.8627 62.7077 29.9748 61.9371 29.9748C60.7611 29.9748 59.668 29.7712 58.6556 29.3615C57.6431 28.9519 56.8299 28.4508 56.2134 27.8558L58.6082 25.5377C59.1085 26.1167 59.6419 26.4874 60.2086 26.6567C60.7753 26.8238 61.2519 26.9085 61.636 26.9085C62.2335 26.9085 62.6745 26.7963 62.9638 26.5721C63.2531 26.3478 63.3977 26.0778 63.3977 25.7597C63.3977 25.5355 63.3005 25.341 63.1084 25.1716C62.9164 25.0023 62.6888 24.8627 62.4303 24.7506C62.1695 24.6384 61.9063 24.5492 61.636 24.4851C61.3657 24.421 61.1452 24.3593 60.9721 24.3021C60.7398 24.2265 60.3509 24.0961 59.8008 23.9107C59.2507 23.7254 58.6935 23.4531 58.1245 23.0984C57.5554 22.7437 57.0599 22.2952 56.6354 21.7551C56.211 21.2151 56 20.5606 56 19.7963C56 19.0114 56.1399 18.3364 56.422 17.7666C56.7042 17.1968 57.0765 16.7254 57.5412 16.3524C58.0059 15.9794 58.537 15.7048 59.1369 15.5263C59.7368 15.3478 60.3556 15.2609 60.9934 15.2609C61.9774 15.2609 62.8144 15.373 63.4997 15.595C64.1849 15.8192 64.7492 16.0595 65.195 16.3204C65.6976 16.6361 66.122 16.9886 66.4706 17.3799L64.0379 19.7254C63.6514 19.2403 63.227 18.8856 62.7623 18.6636C62.2975 18.4394 61.8067 18.3272 61.2851 18.3272C60.8796 18.3272 60.4789 18.421 60.083 18.6064C59.687 18.7918 59.4902 19.0915 59.4902 19.5034C59.4902 19.7277 59.5779 19.9199 59.751 20.0778C59.9241 20.2357 60.1375 20.3661 60.3865 20.4691C60.6354 20.5721 60.901 20.6613 61.1808 20.7345C61.4605 20.8078 61.7048 20.8787 61.9371 20.9336Z" fill="#064492"/>
<path d="M82.7907 15.6293V29.611H79.3052V28.5423C78.7836 28.9725 78.1956 29.3227 77.5388 29.5927C76.882 29.8627 76.1494 30 75.3408 30C74.3948 30 73.5364 29.8284 72.7658 29.4828C71.9952 29.1373 71.3337 28.6682 70.7836 28.0709C70.2336 27.4737 69.8091 26.7757 69.5104 25.9748C69.2116 25.1739 69.0623 24.3158 69.0623 23.4027V15.6293H72.5477V23.3959C72.5477 24.2723 72.8844 25.0343 73.5578 25.6865C74.2122 26.3204 75.0018 26.6362 75.9265 26.6362C76.8702 26.6362 77.6692 26.3204 78.3236 25.6865C78.978 25.0526 79.3052 24.2906 79.3052 23.3959V15.6293H82.7907Z" fill="#064492"/>
<path d="M107.789 15.6293L102.893 29.611H99.2126L96.1421 20.6087L93.0716 29.611H89.4202L84.5239 15.6293H88.1754L91.2459 24.6613L94.3164 15.6293H97.9963L101.067 24.6613L104.137 15.6293H107.789Z" fill="#064492"/>
<path d="M115.988 15.2403C117.052 15.2403 118.048 15.4325 118.975 15.8146C119.902 16.1968 120.716 16.7231 121.413 17.3936C122.11 18.0641 122.655 18.8467 123.051 19.7414C123.447 20.6362 123.646 21.5973 123.646 22.6224C123.646 23.6293 123.447 24.5789 123.051 25.4737C122.655 26.3684 122.108 27.151 121.413 27.8238C120.716 28.4943 119.905 29.0206 118.975 29.4027C118.046 29.7849 117.05 29.9748 115.988 29.9748C114.923 29.9748 113.927 29.7826 113 29.4027C112.071 29.0206 111.26 28.4943 110.563 27.8238C109.866 27.1533 109.32 26.3707 108.924 25.4737C108.529 24.5789 108.329 23.6293 108.329 22.6224C108.329 21.5973 108.529 20.6362 108.924 19.7414C109.32 18.8467 109.868 18.0641 110.563 17.3936C111.26 16.7231 112.071 16.1968 113 15.8146C113.93 15.4325 114.923 15.2403 115.988 15.2403ZM115.988 18.6041C114.828 18.6041 113.842 18.9954 113.031 19.7757C112.22 20.5584 111.815 21.5057 111.815 22.6224C111.815 23.7208 112.22 24.659 113.031 25.4416C113.418 25.833 113.868 26.1259 114.378 26.3204C114.888 26.5149 115.426 26.6133 115.986 26.6133C116.545 26.6133 117.076 26.5149 117.579 26.3204C118.082 26.1259 118.534 25.833 118.942 25.4416C119.753 24.6613 120.159 23.7208 120.159 22.6224C120.159 21.5057 119.753 20.5584 118.942 19.7757C118.093 18.9954 117.109 18.6041 115.988 18.6041Z" fill="#064492"/>
<path d="M131.286 15.6362C131.971 15.357 132.749 15.2174 133.619 15.2174V18.5721C132.46 18.5721 131.476 18.9634 130.665 19.746C129.854 20.5652 129.448 21.5172 129.448 22.5973V29.6133H125.963V22.5973V15.6087H129.448V16.7002C129.989 16.27 130.601 15.9153 131.286 15.6362Z" fill="#064492"/>
<path d="M135.928 29.6111V10.0459H139.414V29.6111H135.928Z" fill="#064492"/>
<path d="M157 10V29.611H153.515V22.627C153.515 21.492 153.109 20.5423 152.296 19.778C151.483 18.9954 150.508 18.6041 149.368 18.6041C148.208 18.6041 147.222 18.9954 146.408 19.7757C145.595 20.5584 145.19 21.5057 145.19 22.6224C145.19 23.7208 145.595 24.659 146.406 25.4416C146.793 25.833 147.241 26.1259 147.753 26.3204C148.265 26.5149 148.801 26.6133 149.36 26.6133C149.92 26.6133 150.432 26.5194 150.897 26.3341L152.142 29.3318C151.253 29.762 150.228 29.9771 149.071 29.9771C148.009 29.9771 147.027 29.7849 146.129 29.405C145.23 29.0229 144.452 28.4966 143.793 27.8261C143.134 27.1556 142.622 26.373 142.254 25.476C141.887 24.5812 141.702 23.6316 141.702 22.6247C141.702 21.5995 141.887 20.6384 142.254 19.7437C142.622 18.849 143.134 18.0664 143.791 17.3959C144.448 16.7254 145.228 16.1991 146.126 15.8169C147.025 15.4348 148.007 15.2426 149.071 15.2426C149.998 15.2426 150.83 15.3822 151.566 15.6636C152.301 15.9451 152.948 16.2998 153.51 16.7277V10.0023H157V10Z" fill="#064492"/>
<path d="M30.5006 3.11652C30.9168 3.23428 30.9304 3.29727 31.1385 3.44515C33.7261 5.27728 36.0399 7.29563 37.8663 11.0393C40.766 16.9793 39.8843 22.0622 39.8405 22.4538C39.7967 22.8454 39.7529 22.9905 39.4736 23.059C39.1943 23.1275 38.9615 22.7194 38.8027 22.5085C37.8964 21.3145 36.3356 18.8333 33.8247 16.1632C31.4042 13.5889 28.1649 10.7408 25.0269 10.5436C21.3468 10.3136 20.0298 13.8272 16.8425 14.6981C14.0222 15.4676 12.6558 13.6245 12.5408 13.4931C12.4258 13.3616 12.3382 13.1973 12.3574 13.0713C12.3765 12.9454 12.5846 12.8577 12.9132 12.6304C14.8354 11.3022 15.3228 10.5217 16.9356 8.47596C18.4662 6.53429 19.7422 4.442 20.7882 3.92441C21.8315 3.40681 23.0335 3.05901 25.298 2.93304C26.9218 2.84266 27.7733 2.90839 29.3067 3.0015C29.931 3.04258 30.1391 3.01519 30.5006 3.11652Z" fill="#FF9033"/>
<path d="M25.2626 0.694852C25.2927 0.703068 25.3283 0.711284 25.3694 0.722238C25.6596 0.793442 26.1279 0.911203 26.0676 1.3439C26.032 1.59038 25.7582 1.75469 25.4351 1.75469C25.0435 1.75469 24.1618 1.82863 23.2473 1.98747C21.8043 2.23942 20.761 2.51876 19.9724 3.04731C18.9867 3.70731 18.2337 4.60557 15.9446 7.83164C14.0141 10.5538 12.3521 11.5644 11.7551 11.9286C11.6976 11.9642 11.6483 11.9943 11.6127 12.0162C11.5552 12.0546 11.5005 12.0847 11.4485 12.1148C11.2924 12.2052 11.1582 12.2846 11.0103 12.4708C10.805 12.7283 10.8899 12.9501 10.9775 13.1391C10.983 13.1527 10.9912 13.1719 11.0021 13.1938C11.1254 13.4704 11.5142 14.3468 12.4698 15.0725C13.4994 15.8557 14.5043 16.094 15.5886 16.0694C18.2063 16.0118 19.956 14.4645 21.1033 13.4485C21.2128 13.3527 21.3141 13.2623 21.4127 13.1774C22.5436 12.1997 23.9099 11.4548 25.75 11.8711C27.59 12.2873 29.734 13.621 32.3518 16.3213C34.9695 19.0243 38.9535 24.7891 39.0302 24.926C39.0548 24.9725 39.0904 25.0136 39.1233 25.0574C39.1945 25.1423 39.2684 25.2327 39.2766 25.3696C39.2903 25.5723 39.2711 25.6846 39.2136 25.9009C38.729 27.7248 37.5324 29.8418 36.7082 31.1043C36.5549 31.3398 36.4426 31.4904 36.1907 31.4822C35.9579 31.4767 35.8758 31.3836 35.6732 31.1618C35.6567 31.1426 35.6376 31.1234 35.6211 31.1043C35.539 31.0139 35.257 30.6497 34.8216 30.091C33.9755 29.0038 32.5571 27.1826 30.9416 25.2135C28.4937 22.2339 25.8759 19.6514 25.5966 19.4241C25.3174 19.1968 24.9833 19.038 24.693 19.3803C24.4028 19.7199 24.7067 20.1307 24.8902 20.3032C25.0791 20.4812 28.8989 24.6658 30.3227 26.2706C31.7466 27.8755 34.9393 32.0409 35.0708 32.2381C35.1118 32.2983 35.1529 32.3476 35.1912 32.3887C35.2707 32.479 35.3309 32.5475 35.3309 32.6927C35.3309 32.9063 35.2761 32.9884 35.1146 33.1719C33.9344 34.5275 33.1677 35.1163 32.36 35.7407C32.1847 35.8749 32.0095 36.0118 31.826 36.157L31.8068 36.1734C31.6015 36.3377 31.4153 36.4856 31.199 36.4747C31.0292 36.4637 30.8704 36.3514 30.6869 36.22C30.6322 36.1789 30.5719 36.1378 30.509 36.0967C30.2434 35.9187 26.6454 33.0405 24.3617 31.0331C22.4286 29.3351 20.0902 26.6979 19.3289 25.8407C19.1893 25.6846 19.1044 25.5887 19.0825 25.5641C19.0688 25.5504 19.0551 25.5367 19.0387 25.5175C18.8799 25.3505 18.5869 25.0383 18.2337 25.4299C17.8969 25.8051 18.0858 26.0433 18.209 26.2049C18.2282 26.2296 18.2446 26.2515 18.2583 26.2706C18.3651 26.4295 20.8568 29.1626 23.2035 31.5096C25.5501 33.8593 29.2056 36.5486 29.3562 36.6499C29.5068 36.7513 29.7614 37.0909 29.7724 37.2442C29.7861 37.3948 29.7176 37.4934 29.5013 37.6221C28.0747 38.4739 25.9827 39.0983 24.9148 39.3885C24.882 39.3968 24.8436 39.4104 24.8053 39.4241C24.6739 39.468 24.5096 39.5227 24.3645 39.5036C24.2139 39.4844 23.9264 39.3475 23.8004 39.2817C22.7435 38.7696 21.2265 37.9809 18.4199 35.727C16.3005 33.988 14.7425 31.8903 14.2524 31.2302C14.1702 31.1207 14.1209 31.0522 14.099 31.0303C14.0935 31.0249 14.0908 31.0194 14.0853 31.0139C13.9457 30.8605 13.7129 30.6058 13.3022 30.9153C12.9079 31.2138 13.1762 31.6137 13.3323 31.8437L13.3406 31.8574C13.3488 31.8683 13.357 31.882 13.3652 31.893C13.5103 32.1148 14.7179 33.7689 16.6401 35.612C18.1789 37.0881 20.1148 38.4191 20.8897 38.9011L20.8952 38.9038C21.002 38.9695 21.5524 39.3119 21.3771 39.6761C21.2265 39.991 20.8295 39.9828 20.6433 39.9801C20.6131 39.9801 20.5913 39.9801 20.5721 39.9801C18.2583 40.0732 15.9446 39.709 13.7485 38.9586C13.7485 38.9586 13.7485 33.4485 9.58925 27.3414C5.7996 21.7766 0.000129155 20.1663 0.000129155 20.1663C-0.00808539 17.8796 0.37526 15.4751 1.23231 12.9966C4.75087 2.81453 16.1609 -1.88765 25.2626 0.694852Z" fill="#064492"/>
<path d="M12.3409 38.365C12.2067 37.1245 11.9329 35.2513 11.4017 33.8518C11.3059 33.6026 11.2183 33.515 11.0567 33.5013C10.8979 33.4876 10.4954 33.6875 10.3639 33.8272C10.2955 33.8984 9.34807 34.8021 8.05565 35.9386C9.36176 36.9054 10.7966 37.727 12.3409 38.365ZM7.03704 35.1225C8.57863 33.8025 9.86286 32.666 9.99703 32.5264C10.0518 32.4688 10.1065 32.4168 10.1586 32.3648C10.3311 32.1977 10.4762 32.0526 10.5173 31.88C10.5693 31.6582 10.4488 31.4391 10.3146 31.1954L10.301 31.1735C10.1832 30.9571 10.0737 30.749 9.96416 30.5409C9.46308 29.5878 8.98938 28.6841 7.79827 27.2107C7.63672 27.0108 7.56277 26.9396 7.33824 26.8985C7.1849 26.8711 7.10549 26.9204 6.99597 26.9862C6.94668 27.0163 6.88918 27.0519 6.81798 27.082C6.66738 27.1505 4.44399 28.3007 2.40404 29.4098C3.58146 31.5788 5.15043 33.5177 7.03704 35.1225ZM1.87832 28.3719C0.887097 26.2632 0.257313 23.971 0.0546875 21.5884C0.0711166 21.5802 0.0847995 21.572 0.101229 21.5637C0.202541 21.5062 0.312077 21.446 0.451724 21.4624C0.665302 21.4871 0.777559 21.5281 0.991138 21.624C2.79834 22.462 4.77804 24.0915 5.94177 25.1787C6.15808 25.3813 6.29226 25.5238 6.24024 25.7867C6.19095 26.0277 6.08143 26.0961 5.81309 26.2632C5.79119 26.2769 5.76653 26.2906 5.74188 26.307C5.63236 26.3755 5.20247 26.6028 4.54256 26.9506C3.86623 27.3093 2.94347 27.7968 1.87832 28.3719Z" fill="#FF9033"/>
</g>
<defs>
<clipPath id="clip0_13045_30">
<rect width="157" height="40" fill="white"/>
</clipPath>
</defs>
</svg>
